HIERARCHY
ROOT Hips
{
	OFFSET 0.00000 0.00000 0.00000
	CHANNELS 6 Xposition Yposition Zposition Yrotation Zrotation Xrotation 
	JOINT Lumbar
	{
		OFFSET 0 0 0
		CHANNELS 3 Zrotation Xrotation Yrotation
		JOINT Neck
		{
			OFFSET 0.00 0.2701 0.00
			CHANNELS 3 Zrotation Xrotation Yrotation
			End Site
			{
				OFFSET 0.00 0.1379 0.00
			}
		}
		JOINT RightShoulder
		{
			OFFSET 0.0119 0.2289 0.1181
			CHANNELS 3 Zrotation Xrotation Yrotation
			JOINT RightElbow
			{
				OFFSET 0.00 -0.1475 0.00
				CHANNELS 2 Zrotation Yrotation
				JOINT RightWrist
				{
					OFFSET 0.00 -0.1605 0.00
					CHANNELS 2 Zrotation Xrotation
					End Site
					{
						OFFSET 0.0040 -0.1068 0.0006
					}
				}
			}
		}
		JOINT LeftShoulder
		{
			OFFSET 0.0119 0.2289 -0.1181
			CHANNELS 3 Zrotation Xrotation Yrotation
			JOINT LeftElbow
			{
				OFFSET 0.00 -0.1475 0.00
				CHANNELS 2 Zrotation Yrotation
				JOINT LeftWrist
				{
					OFFSET 0.00 -0.1605 0.00
					CHANNELS 2 Zrotation Xrotation
					End Site
					{
						OFFSET 0.0040 -0.1068 -0.0006
					}
				}
			}
		}
	}
	JOINT RightHip
	{
		OFFSET 0.0316 -0.0424 0.0458
		CHANNELS 3 Zrotation Xrotation Yrotation
		JOINT RightKnee
		{
			OFFSET 0.00 -0.2438 0.00
			CHANNELS 1 Zrotation
			JOINT RightAnkle
			{
				OFFSET 0.00 -0.2449 0.00
				CHANNELS 3 Zrotation Xrotation Yrotation
				End Site
				{
					OFFSET 0.1237 -0.0542 0.0051
				}
			}
		}
	}
	JOINT LeftHip
	{
		OFFSET 0.0316 -0.0424 -0.0458
		CHANNELS 3 Zrotation Xrotation Yrotation
		JOINT LeftKnee
		{
			OFFSET 0.00 -0.2438 0.00
			CHANNELS 1 Zrotation
			JOINT LeftAnkle
			{
				OFFSET 0.00 -0.2449 0.00
				CHANNELS 3 Zrotation Xrotation Yrotation
				End Site
				{
					OFFSET 0.1237 -0.0542 -0.0051
				}
			}
		}
	}
}
MOTION
Frames: 16
Frame Time: 0.02
1e-05 -0.0002 -3e-05 -170.83577 -41.21403 -2.16407 48.2773 2.56002 -5.72994 1.12178 0.06837 -0.93414 -33.71743 -4.56685 -32.05742 25.47635 128.45727 14.84021 7.62192 -47.3065 10.8657 -6.29667 42.27607 -110.00634 19.31145 -2.06702 45.60781 -1.76474 -5.14691 -19.01748 -6.41282 -2.41048 -3.38793 49.73848 4.56791 10.3221 -25.22146 -6.54335 1.67506 3.05594
0.00043 -0.00021 -0.00012 -170.91152 -41.25191 -2.1565 48.2407 2.53144 -5.71315 1.67866 0.09319 -0.93574 -31.3047 -4.9413 -29.92188 25.77948 126.86551 14.23523 7.49587 -44.1727 10.79768 -5.53137 42.34853 -108.84053 18.24799 -2.10318 45.70773 -1.81717 -5.44717 -19.01957 -6.40719 -2.38175 -3.37377 49.83908 4.56179 10.28217 -25.22673 -6.5396 1.67735 3.05645
0.00084 -0.00022 -0.00021 -170.987 -41.28964 -2.14894 48.20413 2.50293 -5.69622 2.23447 0.11783 -0.93733 -28.89661 -5.31508 -27.78994 26.08225 125.27252 13.63072 7.36889 -41.04448 10.72989 -4.7689 42.42076 -107.67733 17.18721 -2.13918 45.80735 -1.8695 -5.74681 -19.02166 -6.40158 -2.35307 -3.35964 49.9394 4.55567 10.24225 -25.23197 -6.53587 1.67963 3.05697
0.00125 -0.00023 -0.00031 -171.06253 -41.32741 -2.1414 48.16764 2.47442 -5.67945 2.78973 0.14256 -0.93892 -26.49085 -5.68849 -25.66034 26.3846 123.68452 13.02736 7.24297 -37.91966 10.6621 -4.00599 42.49305 -106.51492 16.12692 -2.17522 45.90698 -1.92178 -6.0462 -19.02374 -6.39597 -2.32441 -3.34551 50.0397 4.54956 10.20242 -25.23723 -6.53213 1.68191 3.05748
0.00166 -0.00024 -0.0004 -171.13826 -41.36532 -2.13385 48.13112 2.44585 -5.66291 3.34584 0.16751 -0.94052 -24.08151 -6.0623 -23.52868 26.68695 122.10047 12.42406 7.11861 -34.79084 10.59403 -3.24016 42.56543 -105.35039 15.06424 -2.21147 46.00687 -1.97414 -6.3461 -19.02585 -6.39034 -2.29571 -3.33137 50.14026 4.54347 10.16262 -25.24252 -6.52838 1.68418 3.05799
0.00207 -0.00025 -0.00049 -171.21317 -41.40268 -2.12627 48.09446 2.41748 -5.64517 3.90098 0.19149 -0.94211 -21.67622 -6.43594 -21.39652 26.9905 120.48907 11.81708 6.98621 -31.66412 10.52681 -2.48488 42.63728 -104.1901 14.00753 -2.24695 46.10591 -2.02639 -6.64517 -19.02789 -6.38479 -2.26709 -3.31726 50.24006 4.53725 10.12247 -25.24766 -6.52467 1.68647 3.05851
0.00249 -0.00026 -0.00059 -171.28983 -41.44114 -2.11876 48.05816 2.38872 -5.62983 4.45741 0.21742 -0.9437 -19.26545 -6.80973 -19.26667 27.29168 118.93337 11.21812 6.86977 -28.53662 10.45805 -1.70898 42.71047 -103.02232 12.93989 -2.28389 46.20665 -2.07881 -6.94557 -19.03005 -6.37908 -2.23831 -3.30308 50.3413 4.53131 10.08303 -25.25308 -6.52089 1.68874 3.05901
0.0029 -0.00027 -0.00068 -171.36455 -41.4785 -2.11118 48.02145 2.36033 -5.61232 5.01273 0.24148 -0.9453 -16.85971 -7.18297 -17.13659 27.59437 117.32832 10.61186 6.73926 -25.40981 10.39058 -0.9525 42.7818 -101.8619 11.88248 -2.31956 46.30565 -2.13107 -7.24475 -19.03209 -6.37352 -2.20971 -3.28899 50.44115 4.52512 10.04302 -25.25828 -6.51718 1.691 3.05952
0.00331 -0.00027 -0.00077 -171.43822 -41.51489 -2.10353 47.98452 2.33232 -5.59195 5.56674 0.26355 -0.9469 -14.4587 -7.5574 -14.99729 27.90181 115.65317 9.99578 6.58872 -22.28193 10.32518 -0.21791 42.85333 -100.70802 10.83642 -2.35338 46.40323 -2.18319 -7.54259 -19.03402 -6.36814 -2.18118 -3.27493 50.53963 4.51859 10.00193 -25.26307 -6.51351 1.69334 3.06009
0.00373 -0.00029 -0.00088 -171.52192 -41.55798 -2.09635 47.94968 2.30193 -5.5874 6.12844 0.29796 -0.94845 -12.0261 -7.93062 -12.88405 28.19068 114.35179 9.43348 6.54485 -19.15427 10.24931 0.64819 42.93115 -99.50906 9.72154 -2.39695 46.51109 -2.23626 -7.84861 -19.0367 -6.36173 -2.15183 -3.26046 50.64699 4.51389 9.96589 -25.26979 -6.50947 1.69553 3.06046
0.00412 -0.00028 -0.00095 -171.58191 -41.58623 -2.08813 47.90995 2.27669 -5.54992 6.67372 0.30576 -0.95012 -9.66343 -8.30272 -10.73354 28.51303 112.28153 8.75965 6.2816 -16.03062 10.1946 1.23328 42.99094 -98.41017 8.75423 -2.42051 46.59594 -2.28722 -8.13701 -19.03775 -6.35749 -2.12448 -3.24699 50.73498 4.5054 9.91997 -25.27273 -6.50631 1.69782 3.06115
0.00446 -0.00019 -0.00096 -171.59681 -41.57886 -2.0777 47.8603 2.26472 -5.41722 7.17498 0.24445 -0.95198 -7.46702 -8.70123 -8.34137 28.975 107.90589 7.75593 5.36384 -12.88158 10.20641 1.06881 43.04049 -97.54971 8.17828 -2.38422 46.6281 -2.33319 -8.37859 -19.03564 -6.35905 -2.10061 -3.23509 50.77434 4.48593 9.84021 -25.26314 -6.50468 1.7022 3.06367
0.00477 -7e-05 -0.00095 -171.58394 -41.55542 -2.06621 47.80489 2.25812 -5.25227 7.65929 0.15569 -0.95404 -5.34631 -9.09245 -5.94359 29.46159 102.7875 6.64163 4.23597 -9.74513 10.23802 0.61824 43.06509 -96.79822 7.75461 -2.32879 46.63534 -2.37672 -8.60141 -19.03245 -6.3628 -2.07924 -3.22445 50.79334 4.46287 9.7517 -25.25047 -6.50408 1.70633 3.06635
0.00509 4e-05 -0.00094 -171.5711 -41.53634 -2.05467 47.75006 2.24958 -5.10536 8.15109 0.0769 -0.95599 -3.2067 -9.46871 -3.63167 29.90598 98.1453 5.59733 3.23792 -6.62421 10.25489 0.28441 43.07493 -96.01814 7.26805 -2.28529 46.647 -2.42104 -8.83279 -19.02785 -6.36564 -2.05791 -3.21391 50.81882 4.4417 9.67171 -25.24019 -6.5036 1.7094 3.06837
0.00543 0.00014 -0.00096 -171.61248 -41.53067 -2.045 47.70461 2.2388 -4.94443 8.64497 0.00858 -0.95775 -0.9986 -9.92508 -0.94324 30.48205 92.94438 4.48182 2.0926 -3.40581 10.29554 0.00571 43.19311 -95.14247 6.74854 -2.22797 46.68728 -2.46738 -9.06719 -19.02793 -6.36816 -2.03117 -3.20033 50.85631 4.41899 9.57286 -25.22441 -6.50068 1.71749 3.0729
0.00573 0.00026 -0.00092 -171.53293 -41.49195 -2.03165 47.63727 2.23414 -4.80466 9.12899 -0.08798 -0.96028 1.04492 -10.20913 0.9312 30.78878 88.69593 3.47291 1.20661 -0.4032 10.29199 -0.45517 43.08196 -94.50104 6.34205 -2.19507 46.66267 -2.50808 -9.28684 -19.02221 -6.37182 -2.01686 -3.19361 50.86354 4.3992 9.51078 -25.22101 -6.50304 1.71499 3.07222
